<?xml version="1.0" encoding="utf-8"?>
<!-- Generator: Adobe Illustrator 16.0.4, SVG Export Plug-In . SVG Version: 6.00 Build 0)  -->
<!DOCTYPE svg PUBLIC "-//W3C//DTD SVG 1.1//EN" "http://www.w3.org/Graphics/SVG/1.1/DTD/svg11.dtd">
<svg version="1.1" id="Layer_1" xmlns="http://www.w3.org/2000/svg" xmlns:xlink="http://www.w3.org/1999/xlink" x="0px" y="0px"
	 width="2048px" height="2048px" viewBox="0 0 2048 2048" enable-background="new 0 0 2048 2048" xml:space="preserve">
<g>
	<path fill="#FFFFFF" d="M1022.083,784.441h-2.368c0,0-17.862,72.982-33.333,115.472l-72.598,193.912h214.209l-72.575-193.912
		C1039.923,857.423,1022.083,784.441,1022.083,784.441z"/>
	<path fill="#FFFFFF" d="M1034.216,221.289L1034.216,221.289h-6.246h-7.939h-14.344v0.429L217.523,626.75v384.959h0.023v20.456
		h-0.023v0.022v385.005l788.164,409.52h24.312v-0.046h4.217l2.008,0.046l794.254-409.52v-385.005v-0.022v-20.456V626.75
		L1034.216,221.289z M1408.892,1409.703h-92.828c-59.518,0-80.943-14.162-100.001-63.193l-52.369-135.094H878.082l-52.369,135.094
		c-19.057,49.031-39.288,63.193-98.828,63.193h-94.001v-120.93h19.035c20.252,0,29.771-4.33,36.897-23.951L939.967,636.29h163.06
		l249.934,628.533c7.127,19.621,16.667,23.951,36.874,23.951h19.058V1409.703z"/>
</g>
</svg>
